<mxfile host="app.diagrams.net" agent="Mozilla/5.0 (Windows NT 10.0; Win64; x64) AppleWebKit/537.36 (KHTML, like Gecko) Chrome/137.0.0.0 Safari/537.36" version="27.1.4">
  <diagram name="Page-1" id="L8D_sOTc0Vsrg8IX1oJM">
    <mxGraphModel dx="1042" dy="534" grid="1" gridSize="10" guides="1" tooltips="1" connect="1" arrows="1" fold="1" page="1" pageScale="1" pageWidth="850" pageHeight="1100" math="0" shadow="0">
      <root>
        <mxCell id="0" />
        <mxCell id="1" style="" parent="0" />
        <mxCell id="M2KZPHTKAGTmuo49AGG_-1" value="" style="endArrow=none;html=1;strokeWidth=3;strokeColor=#CCCCCC;labelBackgroundColor=none;fontSize=16;rounded=0;" parent="1" source="M2KZPHTKAGTmuo49AGG_-2" target="M2KZPHTKAGTmuo49AGG_-3" edge="1">
          <mxGeometry relative="1" as="geometry" />
        </mxCell>
        <mxCell id="M2KZPHTKAGTmuo49AGG_-2" value="" style="ellipse;whiteSpace=wrap;html=1;aspect=fixed;shadow=0;fillColor=none;strokeColor=#333333;fontSize=16;align=center;strokeWidth=2;" parent="1" vertex="1">
          <mxGeometry x="399" y="79" width="12" height="12" as="geometry" />
        </mxCell>
        <mxCell id="M2KZPHTKAGTmuo49AGG_-3" value="" style="ellipse;whiteSpace=wrap;html=1;aspect=fixed;shadow=0;fillColor=none;strokeColor=#333333;fontSize=16;align=center;strokeWidth=2;" parent="1" vertex="1">
          <mxGeometry x="399" y="724" width="12" height="12" as="geometry" />
        </mxCell>
        <mxCell id="M2KZPHTKAGTmuo49AGG_-5" value="" style="verticalLabelPosition=middle;verticalAlign=middle;html=1;shape=mxgraph.infographic.circularCallout2;dy=15;strokeColor=#F2931E;labelPosition=center;align=center;fontColor=#F2931E;fontStyle=1;fontSize=24;shadow=0;direction=north;flipH=1;" parent="1" vertex="1">
          <mxGeometry x="399" y="179" width="246" height="60" as="geometry" />
        </mxCell>
        <mxCell id="M2KZPHTKAGTmuo49AGG_-6" value="" style="verticalLabelPosition=middle;verticalAlign=middle;html=1;shape=mxgraph.infographic.circularCallout2;dy=15;strokeColor=#AE4132;labelPosition=center;align=center;fontColor=#10739E;fontStyle=1;fontSize=24;shadow=0;direction=north;" parent="1" vertex="1">
          <mxGeometry x="165" y="370" width="246" height="60" as="geometry" />
        </mxCell>
        <mxCell id="M2KZPHTKAGTmuo49AGG_-7" value="" style="verticalLabelPosition=middle;verticalAlign=middle;html=1;shape=mxgraph.infographic.circularCallout2;dy=15;strokeColor=#23445D;labelPosition=center;align=center;fontColor=#10739E;fontStyle=1;fontSize=24;shadow=0;direction=north;flipH=1;" parent="1" vertex="1">
          <mxGeometry x="399" y="440" width="246" height="60" as="geometry" />
        </mxCell>
        <mxCell id="M2KZPHTKAGTmuo49AGG_-9" value="" style="verticalLabelPosition=middle;verticalAlign=middle;html=1;shape=mxgraph.infographic.circularCallout2;dy=15;strokeColor=#56517E;labelPosition=center;align=center;fontColor=#10739E;fontStyle=1;fontSize=24;shadow=0;direction=north;flipH=1;" parent="1" vertex="1">
          <mxGeometry x="399" y="606" width="246" height="60" as="geometry" />
        </mxCell>
        <UserObject label="&lt;font style=&quot;font-size: 12px;&quot;&gt;General development skills&lt;/font&gt;" Tags="Jobs 1" id="M2KZPHTKAGTmuo49AGG_-10">
          <mxCell style="fillColor=#10739E;strokecolor=none;rounded=1;fontColor=#FFFFFF;strokeColor=none;fontStyle=1;fontSize=14;whiteSpace=wrap;html=1;" parent="1" vertex="1">
            <mxGeometry x="235" y="99" width="160" height="30" as="geometry" />
          </mxCell>
        </UserObject>
        <mxCell id="M2KZPHTKAGTmuo49AGG_-11" value="Search engines" style="fillColor=#F2931E;strokecolor=none;rounded=1;fontColor=#FFFFFF;strokeColor=none;fontStyle=1;fontSize=14;whiteSpace=wrap;html=1;" parent="1" vertex="1">
          <mxGeometry x="415" y="164" width="160" height="30" as="geometry" />
        </mxCell>
        <mxCell id="M2KZPHTKAGTmuo49AGG_-12" value="IDE" style="fillColor=#AE4132;strokecolor=none;rounded=1;fontColor=#FFFFFF;strokeColor=none;fontStyle=1;fontSize=14;whiteSpace=wrap;html=1;" parent="1" vertex="1">
          <mxGeometry x="235" y="360" width="160" height="30" as="geometry" />
        </mxCell>
        <mxCell id="M2KZPHTKAGTmuo49AGG_-13" value="c#" style="fillColor=#23445D;strokecolor=none;rounded=1;fontColor=#FFFFFF;strokeColor=none;fontStyle=1;fontSize=14;whiteSpace=wrap;html=1;" parent="1" vertex="1">
          <mxGeometry x="415" y="425" width="160" height="30" as="geometry" />
        </mxCell>
        <mxCell id="M2KZPHTKAGTmuo49AGG_-15" value="Patterns" style="fillColor=#56517E;strokecolor=none;rounded=1;fontColor=#FFFFFF;strokeColor=none;fontStyle=1;fontSize=14;whiteSpace=wrap;html=1;" parent="1" vertex="1">
          <mxGeometry x="415" y="591" width="160" height="30" as="geometry" />
        </mxCell>
        <UserObject label="&lt;font style=&quot;&quot;&gt;&lt;font style=&quot;font-size: 12px;&quot; color=&quot;#10739E&quot;&gt;&lt;b&gt;Version control&lt;/b&gt;&lt;/font&gt;&lt;br&gt;&lt;br&gt;&lt;font size=&quot;1&quot;&gt;Git&lt;/font&gt;&lt;/font&gt;&lt;div&gt;&lt;font style=&quot;&quot;&gt;&lt;font size=&quot;1&quot;&gt;GitHub&lt;/font&gt;&lt;/font&gt;&lt;/div&gt;&lt;div&gt;&lt;font size=&quot;1&quot;&gt;BitBucket&lt;/font&gt;&lt;/div&gt;&lt;div&gt;&lt;font size=&quot;1&quot;&gt;SVN&lt;/font&gt;&lt;/div&gt;&lt;div&gt;&lt;font size=&quot;1&quot;&gt;GitLab&lt;br&gt;TFS&lt;/font&gt;&lt;/div&gt;&lt;div&gt;&lt;font size=&quot;1&quot;&gt;Gitea&lt;/font&gt;&lt;/div&gt;" link="Jobs 1" id="M2KZPHTKAGTmuo49AGG_-16">
          <mxCell style="rounded=1;strokeColor=none;fillColor=#EEEEEE;align=center;arcSize=12;verticalAlign=top;whiteSpace=wrap;html=1;fontSize=12;" parent="1" vertex="1">
            <mxGeometry x="235" y="149" width="160" height="151" as="geometry" />
          </mxCell>
        </UserObject>
        <mxCell id="M2KZPHTKAGTmuo49AGG_-17" value="&lt;font color=&quot;#f2931e&quot;&gt;&lt;b&gt;Google&lt;/b&gt;&lt;/font&gt;&lt;div&gt;&lt;font color=&quot;#f2931e&quot;&gt;&lt;b&gt;Perplexity&lt;/b&gt;&lt;/font&gt;&lt;/div&gt;&lt;div&gt;&lt;font color=&quot;#f2931e&quot;&gt;&lt;b&gt;ChatGpt&lt;/b&gt;&lt;/font&gt;&lt;/div&gt;" style="rounded=1;strokeColor=none;fillColor=#EEEEEE;align=center;arcSize=12;verticalAlign=top;whiteSpace=wrap;html=1;fontSize=12;" parent="1" vertex="1">
          <mxGeometry x="415" y="219" width="160" height="70" as="geometry" />
        </mxCell>
        <mxCell id="M2KZPHTKAGTmuo49AGG_-18" value="&lt;font color=&quot;#ae4132&quot;&gt;&lt;b&gt;Visaul Studio&lt;/b&gt;&lt;/font&gt;&lt;div&gt;&lt;font color=&quot;#ae4132&quot;&gt;&lt;b&gt;Visual Studio Code&lt;/b&gt;&lt;/font&gt;&lt;/div&gt;&lt;div&gt;&lt;font color=&quot;#ae4132&quot;&gt;&lt;b&gt;InteliJ&lt;/b&gt;&lt;/font&gt;&lt;/div&gt;&lt;div&gt;&lt;font color=&quot;#ae4132&quot;&gt;&lt;b&gt;LabView&lt;/b&gt;&lt;/font&gt;&lt;/div&gt;&lt;div&gt;&lt;font color=&quot;#ae4132&quot;&gt;&lt;b&gt;TIA Portal&lt;/b&gt;&lt;/font&gt;&lt;/div&gt;&lt;div&gt;&lt;font color=&quot;#ae4132&quot;&gt;&lt;b&gt;Embarcadero&lt;/b&gt;&lt;/font&gt;&lt;/div&gt;&lt;div&gt;&lt;font color=&quot;#ae4132&quot;&gt;&lt;b&gt;&lt;br&gt;&lt;/b&gt;&lt;/font&gt;&lt;/div&gt;" style="rounded=1;strokeColor=none;fillColor=#EEEEEE;align=center;arcSize=12;verticalAlign=top;whiteSpace=wrap;html=1;fontSize=12;" parent="1" vertex="1">
          <mxGeometry x="235" y="410" width="160" height="70" as="geometry" />
        </mxCell>
        <mxCell id="M2KZPHTKAGTmuo49AGG_-19" value="&lt;font color=&quot;#23445d&quot;&gt;&lt;b&gt;.Net framework&lt;/b&gt;&lt;/font&gt;&lt;div&gt;&lt;b style=&quot;color: rgb(35, 68, 93);&quot;&gt;ASP.NET core&lt;/b&gt;&lt;font color=&quot;#23445d&quot;&gt;&lt;b&gt;&lt;br&gt;&lt;/b&gt;&lt;/font&gt;&lt;div&gt;&lt;font color=&quot;#23445d&quot;&gt;&lt;b&gt;.Net&amp;nbsp;&lt;/b&gt;&lt;/font&gt;&lt;br&gt;&lt;div&gt;&lt;font color=&quot;#23445d&quot;&gt;&lt;b&gt;.Net Aspire&lt;/b&gt;&lt;/font&gt;&lt;/div&gt;&lt;div&gt;&lt;font color=&quot;#23445d&quot;&gt;&lt;b&gt;.Net CLI&lt;/b&gt;&lt;/font&gt;&lt;/div&gt;&lt;div&gt;&lt;font color=&quot;#23445d&quot;&gt;&lt;b&gt;installation tools&lt;/b&gt;&lt;/font&gt;&lt;/div&gt;&lt;div&gt;&lt;br&gt;&lt;/div&gt;&lt;/div&gt;&lt;/div&gt;" style="rounded=1;strokeColor=none;fillColor=#EEEEEE;align=center;arcSize=12;verticalAlign=top;whiteSpace=wrap;html=1;fontSize=12;" parent="1" vertex="1">
          <mxGeometry x="415" y="480" width="160" height="70" as="geometry" />
        </mxCell>
        <mxCell id="M2KZPHTKAGTmuo49AGG_-45" value="Roadmap" style="text;strokeColor=none;fillColor=none;html=1;fontSize=24;fontStyle=1;verticalAlign=middle;align=center;" parent="1" vertex="1">
          <mxGeometry x="340" y="31" width="100" height="40" as="geometry" />
        </mxCell>
        <mxCell id="M2KZPHTKAGTmuo49AGG_-79" value="Good to know" style="html=1;shadow=0;dashed=0;shape=mxgraph.atlassian.checkbox_2;fillColor=light-dark(#8100d6, #67b2ff);strokeColor=none;fontColor=#000000;align=left;verticalAlign=middle;fontStyle=0;fontSize=12;labelPosition=right;verticalLabelPosition=middle;spacingLeft=10;sketch=0;hachureGap=4;pointerEvents=0;fontFamily=Architects Daughter;fontSource=https%3A%2F%2Ffonts.googleapis.com%2Fcss%3Ffamily%3DArchitects%2BDaughter;" parent="1" vertex="1">
          <mxGeometry x="50" y="139" width="12" height="12" as="geometry" />
        </mxCell>
        <mxCell id="M2KZPHTKAGTmuo49AGG_-80" value="Alternative" style="html=1;shadow=0;dashed=0;shape=mxgraph.atlassian.checkbox_2;fillColor=#FFE599;strokeColor=none;fontColor=#000000;align=left;verticalAlign=middle;fontStyle=0;fontSize=12;labelPosition=right;verticalLabelPosition=middle;spacingLeft=10;sketch=0;hachureGap=4;pointerEvents=0;fontFamily=Architects Daughter;fontSource=https%3A%2F%2Ffonts.googleapis.com%2Fcss%3Ffamily%3DArchitects%2BDaughter;" parent="1" vertex="1">
          <mxGeometry x="50" y="159" width="12" height="12" as="geometry" />
        </mxCell>
        <mxCell id="M2KZPHTKAGTmuo49AGG_-97" value="" style="verticalLabelPosition=top;shadow=0;dashed=0;align=center;html=1;verticalAlign=bottom;strokeWidth=1;shape=mxgraph.mockup.misc.pin;fillColor2=#00dd00;fillColor3=#004400;strokeColor=#006600;" parent="1" vertex="1">
          <mxGeometry x="30" y="101.5" width="10" height="25" as="geometry" />
        </mxCell>
        <mxCell id="M2KZPHTKAGTmuo49AGG_-99" value="" style="verticalLabelPosition=top;shadow=0;dashed=0;align=center;html=1;verticalAlign=bottom;strokeWidth=1;shape=mxgraph.mockup.misc.pin;fillColor2=#ccccff;fillColor3=#8100D6;strokeColor=#000066;" parent="1" vertex="1">
          <mxGeometry x="30" y="132.5" width="10" height="25" as="geometry" />
        </mxCell>
        <mxCell id="M2KZPHTKAGTmuo49AGG_-100" value="" style="verticalLabelPosition=top;shadow=0;dashed=0;align=center;html=1;verticalAlign=bottom;strokeWidth=1;shape=mxgraph.mockup.misc.pin;fillColor2=#ffff00;fillColor3=#888800;strokeColor=#999900;" parent="1" vertex="1">
          <mxGeometry x="30" y="171.5" width="10" height="25" as="geometry" />
        </mxCell>
        <mxCell id="M2KZPHTKAGTmuo49AGG_-101" value="" style="verticalLabelPosition=top;shadow=0;dashed=0;align=center;html=1;verticalAlign=bottom;strokeWidth=1;shape=mxgraph.mockup.misc.pin;fillColor2=#666666;fillColor3=#440000;strokeColor=#666666;" parent="1" vertex="1">
          <mxGeometry x="30" y="204" width="10" height="25" as="geometry" />
        </mxCell>
        <mxCell id="M2KZPHTKAGTmuo49AGG_-104" value="Wouldn&#39;t recommend" style="html=1;shadow=0;dashed=0;shape=mxgraph.atlassian.checkbox_2;fillColor=#666666;strokeColor=none;fontColor=#000000;align=left;verticalAlign=middle;fontStyle=0;fontSize=12;labelPosition=right;verticalLabelPosition=middle;spacingLeft=10;sketch=0;hachureGap=4;pointerEvents=0;fontFamily=Architects Daughter;fontSource=https%3A%2F%2Ffonts.googleapis.com%2Fcss%3Ffamily%3DArchitects%2BDaughter;" parent="1" vertex="1">
          <mxGeometry x="50" y="179" width="12" height="12" as="geometry" />
        </mxCell>
        <mxCell id="M2KZPHTKAGTmuo49AGG_-105" value="Must know" style="html=1;shadow=0;dashed=0;shape=mxgraph.atlassian.checkbox_2;fillColor=light-dark(#006633,#67B2FF);strokeColor=none;fontColor=#000000;align=left;verticalAlign=middle;fontStyle=0;fontSize=12;labelPosition=right;verticalLabelPosition=middle;spacingLeft=10;sketch=0;hachureGap=4;pointerEvents=0;fontFamily=Architects Daughter;fontSource=https%3A%2F%2Ffonts.googleapis.com%2Fcss%3Ffamily%3DArchitects%2BDaughter;" parent="1" vertex="1">
          <mxGeometry x="50" y="120" width="12" height="12" as="geometry" />
        </mxCell>
        <mxCell id="VMWJDIf144AQG_EVKxVJ-2" value="" style="verticalLabelPosition=middle;verticalAlign=middle;html=1;shape=mxgraph.infographic.circularCallout2;dy=15;strokeColor=#F2931E;labelPosition=center;align=center;fontColor=#F2931E;fontStyle=1;fontSize=24;shadow=0;direction=north;flipH=1;" parent="1" vertex="1">
          <mxGeometry x="399" y="315" width="246" height="60" as="geometry" />
        </mxCell>
        <mxCell id="VMWJDIf144AQG_EVKxVJ-3" value="Literature" style="fillColor=#F2931E;strokecolor=none;rounded=1;fontColor=#FFFFFF;strokeColor=none;fontStyle=1;fontSize=14;whiteSpace=wrap;html=1;" parent="1" vertex="1">
          <mxGeometry x="415" y="300" width="160" height="30" as="geometry" />
        </mxCell>
        <mxCell id="4aiCjU7T3tnZBi2nyRzy-35" value="" style="fillColor=#dddddd;rounded=0;strokeColor=none;" vertex="1" parent="1">
          <mxGeometry x="3" y="958" width="840" height="30" as="geometry" />
        </mxCell>
        <mxCell id="4aiCjU7T3tnZBi2nyRzy-43" value="Toggles" parent="0" />
        <UserObject label="Origo" link="data:action/json,{&quot;actions&quot;:[{&quot;toggle&quot;:{&quot;cells&quot;:[&quot;4aiCjU7T3tnZBi2nyRzy-2&quot;]}}]}" id="4aiCjU7T3tnZBi2nyRzy-44">
          <mxCell style="rounded=1;whiteSpace=wrap;html=1;fontSize=12;fillColor=#F5F5F5;strokeColor=#666666;strokeWidth=3;" vertex="1" parent="4aiCjU7T3tnZBi2nyRzy-43">
            <mxGeometry x="239" y="947" width="80" height="50" as="geometry" />
          </mxCell>
        </UserObject>
        <UserObject label="Danieli&amp;nbsp;&lt;br&gt;&lt;span style=&quot;background-color: transparent; color: light-dark(rgb(0, 0, 0), rgb(255, 255, 255));&quot;&gt;Systec&lt;/span&gt;" link="data:action/json,{&quot;actions&quot;:[{&quot;toggle&quot;:{&quot;cells&quot;:[&quot;4aiCjU7T3tnZBi2nyRzy-4&quot;]}}]}" id="4aiCjU7T3tnZBi2nyRzy-45">
          <mxCell style="rounded=1;whiteSpace=wrap;html=1;fontSize=12;fillColor=#F5F5F5;strokeColor=#666666;strokeWidth=3;" vertex="1" parent="4aiCjU7T3tnZBi2nyRzy-43">
            <mxGeometry x="339" y="947" width="80" height="50" as="geometry" />
          </mxCell>
        </UserObject>
        <UserObject label="Span" link="data:action/json,{&quot;actions&quot;:[{&quot;toggle&quot;:{&quot;cells&quot;:[&quot;4aiCjU7T3tnZBi2nyRzy-6&quot;]}}]}" id="4aiCjU7T3tnZBi2nyRzy-46">
          <mxCell style="rounded=1;whiteSpace=wrap;html=1;fontSize=12;fillColor=#F5F5F5;strokeColor=#666666;strokeWidth=3;" vertex="1" parent="4aiCjU7T3tnZBi2nyRzy-43">
            <mxGeometry x="439" y="947" width="80" height="50" as="geometry" />
          </mxCell>
        </UserObject>
        <UserObject label="Monri" link="data:action/json,{&quot;actions&quot;:[{&quot;toggle&quot;:{&quot;cells&quot;:[&quot;4aiCjU7T3tnZBi2nyRzy-7&quot;]}}]}" id="4aiCjU7T3tnZBi2nyRzy-47">
          <mxCell style="rounded=1;whiteSpace=wrap;html=1;fontSize=12;fillColor=#F5F5F5;strokeColor=#666666;strokeWidth=3;" vertex="1" parent="4aiCjU7T3tnZBi2nyRzy-43">
            <mxGeometry x="539" y="947" width="80" height="50" as="geometry" />
          </mxCell>
        </UserObject>
        <UserObject label="AGCT" link="data:action/json,{&quot;actions&quot;:[{&quot;toggle&quot;:{&quot;cells&quot;:[&quot;4aiCjU7T3tnZBi2nyRzy-8&quot;]}}]}" id="4aiCjU7T3tnZBi2nyRzy-48">
          <mxCell style="rounded=1;whiteSpace=wrap;html=1;fontSize=12;fillColor=#F5F5F5;strokeColor=#666666;strokeWidth=3;" vertex="1" parent="4aiCjU7T3tnZBi2nyRzy-43">
            <mxGeometry x="639" y="947" width="80" height="50" as="geometry" />
          </mxCell>
        </UserObject>
        <UserObject label="Miscellaneous" link="data:action/json,{&quot;actions&quot;:[{&quot;toggle&quot;:{&quot;cells&quot;:[&quot;4aiCjU7T3tnZBi2nyRzy-9&quot;]}}]}" id="4aiCjU7T3tnZBi2nyRzy-49">
          <mxCell style="rounded=1;whiteSpace=wrap;html=1;fontSize=12;fillColor=#F5F5F5;strokeColor=#666666;strokeWidth=3;" vertex="1" parent="4aiCjU7T3tnZBi2nyRzy-43">
            <mxGeometry x="139" y="947" width="80" height="50" as="geometry" />
          </mxCell>
        </UserObject>
        <mxCell id="4aiCjU7T3tnZBi2nyRzy-2" value="Origo" parent="0" />
        <UserObject label="Origo" link="data:action/json,{&quot;actions&quot;:[{&quot;toggle&quot;:{&quot;cells&quot;:[&quot;4aiCjU7T3tnZBi2nyRzy-2&quot;]}}]}" id="4aiCjU7T3tnZBi2nyRzy-3">
          <mxCell style="rounded=1;whiteSpace=wrap;html=1;fontSize=12;fillColor=#e1d5e7;strokeColor=#9673a6;strokeWidth=3;" vertex="1" parent="4aiCjU7T3tnZBi2nyRzy-2">
            <mxGeometry x="239" y="947" width="80" height="50" as="geometry" />
          </mxCell>
        </UserObject>
        <mxCell id="4aiCjU7T3tnZBi2nyRzy-4" value="Systec" parent="0" />
        <UserObject label="Danieli&amp;nbsp;&lt;br&gt;&lt;span style=&quot;background-color: transparent; color: light-dark(rgb(0, 0, 0), rgb(255, 255, 255));&quot;&gt;Systec&lt;/span&gt;" link="data:action/json,{&quot;actions&quot;:[{&quot;toggle&quot;:{&quot;cells&quot;:[&quot;4aiCjU7T3tnZBi2nyRzy-4&quot;]}}]}" id="4aiCjU7T3tnZBi2nyRzy-5">
          <mxCell style="rounded=1;whiteSpace=wrap;html=1;fontSize=12;fillColor=#e1d5e7;strokeColor=#9673a6;strokeWidth=3;" vertex="1" parent="4aiCjU7T3tnZBi2nyRzy-4">
            <mxGeometry x="339" y="947" width="80" height="50" as="geometry" />
          </mxCell>
        </UserObject>
        <mxCell id="4aiCjU7T3tnZBi2nyRzy-6" value="Span" parent="0" />
        <UserObject label="Span" link="data:action/json,{&quot;actions&quot;:[{&quot;toggle&quot;:{&quot;cells&quot;:[&quot;4aiCjU7T3tnZBi2nyRzy-6&quot;]}}]}" id="4aiCjU7T3tnZBi2nyRzy-10">
          <mxCell style="rounded=1;whiteSpace=wrap;html=1;fontSize=12;fillColor=#e1d5e7;strokeColor=#9673a6;strokeWidth=3;" vertex="1" parent="4aiCjU7T3tnZBi2nyRzy-6">
            <mxGeometry x="439" y="947" width="80" height="50" as="geometry" />
          </mxCell>
        </UserObject>
        <mxCell id="4aiCjU7T3tnZBi2nyRzy-7" value="Monri" parent="0" />
        <UserObject label="Monri" link="data:action/json,{&quot;actions&quot;:[{&quot;toggle&quot;:{&quot;cells&quot;:[&quot;4aiCjU7T3tnZBi2nyRzy-7&quot;]}}]}" id="4aiCjU7T3tnZBi2nyRzy-11">
          <mxCell style="rounded=1;whiteSpace=wrap;html=1;fontSize=12;fillColor=#e1d5e7;strokeColor=#9673a6;strokeWidth=3;" vertex="1" parent="4aiCjU7T3tnZBi2nyRzy-7">
            <mxGeometry x="539" y="947" width="80" height="50" as="geometry" />
          </mxCell>
        </UserObject>
        <mxCell id="4aiCjU7T3tnZBi2nyRzy-8" value="AGCT" style="" parent="0" />
        <UserObject label="AGCT" link="data:action/json,{&quot;actions&quot;:[{&quot;toggle&quot;:{&quot;cells&quot;:[&quot;4aiCjU7T3tnZBi2nyRzy-8&quot;]}}]}" id="4aiCjU7T3tnZBi2nyRzy-12">
          <mxCell style="rounded=1;whiteSpace=wrap;html=1;fontSize=12;fillColor=#e1d5e7;strokeColor=#9673a6;strokeWidth=3;" vertex="1" parent="4aiCjU7T3tnZBi2nyRzy-8">
            <mxGeometry x="639" y="947" width="80" height="50" as="geometry" />
          </mxCell>
        </UserObject>
        <mxCell id="4aiCjU7T3tnZBi2nyRzy-9" value="Misc" style="" parent="0" />
        <UserObject label="Miscellaneous" link="data:action/json,{&quot;actions&quot;:[{&quot;toggle&quot;:{&quot;cells&quot;:[&quot;4aiCjU7T3tnZBi2nyRzy-9&quot;]}}]}" id="4aiCjU7T3tnZBi2nyRzy-13">
          <mxCell style="rounded=1;whiteSpace=wrap;html=1;fontSize=12;fillColor=#e1d5e7;strokeColor=#9673a6;strokeWidth=3;" vertex="1" parent="4aiCjU7T3tnZBi2nyRzy-9">
            <mxGeometry x="139" y="947" width="80" height="50" as="geometry" />
          </mxCell>
        </UserObject>
        <mxCell id="4aiCjU7T3tnZBi2nyRzy-36" value="&lt;font color=&quot;#56517e&quot;&gt;&lt;b&gt;Gang of Four&lt;/b&gt;&lt;/font&gt;" style="rounded=1;strokeColor=none;fillColor=#EEEEEE;align=center;arcSize=12;verticalAlign=top;whiteSpace=wrap;html=1;fontSize=12;" vertex="1" parent="4aiCjU7T3tnZBi2nyRzy-9">
          <mxGeometry x="420" y="640" width="160" height="70" as="geometry" />
        </mxCell>
        <mxCell id="4aiCjU7T3tnZBi2nyRzy-50" value="" style="verticalLabelPosition=middle;verticalAlign=middle;html=1;shape=mxgraph.infographic.circularCallout2;dy=15;strokeColor=#12AAB5;labelPosition=center;align=center;fontColor=#10739E;fontStyle=1;fontSize=24;shadow=0;direction=north;" vertex="1" parent="4aiCjU7T3tnZBi2nyRzy-9">
          <mxGeometry x="163" y="540" width="246" height="60" as="geometry" />
        </mxCell>
        <mxCell id="4aiCjU7T3tnZBi2nyRzy-51" value="Principles" style="fillColor=#12AAB5;strokecolor=none;rounded=1;fontColor=#FFFFFF;strokeColor=none;fontStyle=1;fontSize=14;whiteSpace=wrap;html=1;" vertex="1" parent="4aiCjU7T3tnZBi2nyRzy-9">
          <mxGeometry x="233" y="530" width="160" height="30" as="geometry" />
        </mxCell>
        <mxCell id="4aiCjU7T3tnZBi2nyRzy-52" value="&lt;font color=&quot;#12aab5&quot;&gt;&lt;b&gt;SOLID&lt;/b&gt;&lt;/font&gt;&lt;div&gt;&lt;font color=&quot;#12aab5&quot;&gt;&lt;b&gt;DRY&lt;/b&gt;&lt;/font&gt;&lt;/div&gt;&lt;div&gt;&lt;font color=&quot;#12aab5&quot;&gt;&lt;b&gt;YAGNI&lt;/b&gt;&lt;/font&gt;&lt;/div&gt;" style="rounded=1;strokeColor=none;fillColor=#EEEEEE;align=center;arcSize=12;verticalAlign=top;whiteSpace=wrap;html=1;fontSize=12;" vertex="1" parent="4aiCjU7T3tnZBi2nyRzy-9">
          <mxGeometry x="233" y="580" width="160" height="70" as="geometry" />
        </mxCell>
      </root>
    </mxGraphModel>
  </diagram>
</mxfile>
